<svg viewBox="0 0 32 32" fill="none" xmlns="http://www.w3.org/2000/svg">
  <!-- Simplified book icon for favicon -->
  <rect width="32" height="32" rx="6" fill="#4F46E5"/>

  <!-- Open book -->
  <path d="M6 10C6 10 8 9 12 9C14 9 16 9.5 16 10V22C16 22 14 21 12 21C9 21 6 22 6 22V10Z" fill="#A5B4FC"/>
  <path d="M26 10C26 10 24 9 20 9C18 9 16 9.5 16 10V22C16 22 18 21 20 21C23 21 26 22 26 22V10Z" fill="#C7D2FE"/>

  <!-- Growth arrow -->
  <path d="M10 18L14 14L18 16L22 12" stroke="white" stroke-width="1.5" stroke-linecap="round" stroke-linejoin="round"/>
  <path d="M19 12H22V15" stroke="white" stroke-width="1.5" stroke-linecap="round" stroke-linejoin="round"/>
</svg>