<svg viewBox="0 0 32 32" fill="none" xmlns="http://www.w3.org/2000/svg">
  <!-- Background -->
  <rect width="32" height="32" rx="6" fill="#4F46E5"/>

  <!-- Open book (simplified) -->
  <path d="M6 14C6 14 8 13 12 13C14 13 16 13.5 16 14V24C16 24 14 23 12 23C9 23 6 24 6 24V14Z" fill="#A5B4FC"/>
  <path d="M26 14C26 14 24 13 20 13C18 13 16 13.5 16 14V24C16 24 18 23 20 23C23 23 26 24 26 24V14Z" fill="#C7D2FE"/>

  <!-- Lightbulb (simplified) -->
  <circle cx="16" cy="7" r="4" fill="#FEF3C7" stroke="#F59E0B" stroke-width="1.5"/>
  <rect x="14" y="11" width="4" height="2" rx="0.5" fill="#A3A3A3"/>

  <!-- Light rays -->
  <path d="M16 1V2.5" stroke="#FCD34D" stroke-width="1" stroke-linecap="round"/>
  <path d="M21 4L20 5" stroke="#FCD34D" stroke-width="1" stroke-linecap="round"/>
  <path d="M11 4L12 5" stroke="#FCD34D" stroke-width="1" stroke-linecap="round"/>
</svg>