<svg viewBox="0 0 200 48" fill="none" xmlns="http://www.w3.org/2000/svg">
  <!-- Icon -->
  <g transform="translate(0, 0)">
    <!-- Open book base -->
    <path d="M4 12C4 12 8 10 16 10C20 10 24 11 24 12V38C24 38 20 36 16 36C10 36 4 38 4 38V12Z" fill="#818CF8" opacity="0.4"/>
    <path d="M44 12C44 12 40 10 32 10C28 10 24 11 24 12V38C24 38 28 36 32 36C38 36 44 38 44 38V12Z" fill="#A5B4FC" opacity="0.5"/>

    <!-- Book spine -->
    <path d="M24 12V38" stroke="#A5B4FC" stroke-width="2" stroke-linecap="round"/>

    <!-- Book covers outline -->
    <path d="M4 12C4 12 8 10 16 10C20 10 24 11 24 12V38C24 38 20 36 16 36C10 36 4 38 4 38V12Z" stroke="#A5B4FC" stroke-width="2" stroke-linecap="round" stroke-linejoin="round" fill="none"/>
    <path d="M44 12C44 12 40 10 32 10C28 10 24 11 24 12V38C24 38 28 36 32 36C38 36 44 38 44 38V12Z" stroke="#A5B4FC" stroke-width="2" stroke-linecap="round" stroke-linejoin="round" fill="none"/>

    <!-- Rising knowledge/growth arrow -->
    <path d="M14 26L20 18L26 22L34 14" stroke="#C7D2FE" stroke-width="2.5" stroke-linecap="round" stroke-linejoin="round"/>
    <path d="M28 14H34V20" stroke="#C7D2FE" stroke-width="2.5" stroke-linecap="round" stroke-linejoin="round"/>

    <!-- Sparkle/stars -->
    <circle cx="38" cy="8" r="1.5" fill="#E0E7FF"/>
    <circle cx="10" cy="6" r="1" fill="#E0E7FF"/>
    <circle cx="42" cy="18" r="1" fill="#E0E7FF"/>
  </g>

  <!-- Text: LearnEx (for dark backgrounds) -->
  <text x="56" y="33" font-family="system-ui, -apple-system, 'Segoe UI', Roboto, sans-serif" font-size="26" font-weight="700" letter-spacing="-0.5">
    <tspan fill="#FFFFFF">Learn</tspan><tspan fill="#A3A3A3">Ex</tspan>
  </text>
</svg>